HIERARCHY
ROOT Hips
{
	OFFSET 0.000000 0.000000 0.000000
	CHANNELS 6 Xposition Yposition Zposition Yrotation Xrotation Zrotation
	JOINT Chest
	{
		OFFSET 0.000000 3.947999 8.484001
		CHANNELS 3 Yrotation Xrotation Zrotation
		JOINT Chest2
		{
			OFFSET -0.242000 -1.009004 23.992001
			CHANNELS 3 Yrotation Xrotation Zrotation
			JOINT LeftCollar
			{
				OFFSET 6.798000 -2.924003 16.166000
				CHANNELS 3 Yrotation Xrotation Zrotation
				JOINT LeftShoulder
				{
					OFFSET 13.459999 0.000000 0.000000
					CHANNELS 3 Yrotation Xrotation Zrotation
					JOINT LeftElbow
					{
						OFFSET 26.099998 0.000000 0.000000
						CHANNELS 3 Yrotation Xrotation Zrotation
						JOINT LeftWrist
						{
							OFFSET 28.739998 0.000000 0.000000
							CHANNELS 3 Yrotation Xrotation Zrotation
							End Site
							{
								OFFSET 0.005997 0.000002 -10.922001
							}
						}
					}
				}
			}
			JOINT Neck
			{
				OFFSET -0.242000 -1.009004 23.992001
				CHANNELS 3 Yrotation Xrotation Zrotation
				JOINT Head
				{
					OFFSET 0.000000 -0.000002 10.451996
					CHANNELS 3 Yrotation Xrotation Zrotation
					End Site
					{
						OFFSET -0.012000 0.004997 20.533997
					}
				}
			}
			JOINT RightCollar
			{
				OFFSET -7.282000 -2.924003 16.166000
				CHANNELS 3 Yrotation Xrotation Zrotation
				JOINT RightShoulder
				{
					OFFSET -13.460001 0.000000 0.000000
					CHANNELS 3 Yrotation Xrotation Zrotation
					JOINT RightElbow
					{
						OFFSET -26.099998 0.000000 0.000000
						CHANNELS 3 Yrotation Xrotation Zrotation
						JOINT RightWrist
						{
							OFFSET -28.739998 0.000000 0.000000
							CHANNELS 3 Yrotation Xrotation Zrotation
							End Site
							{
								OFFSET 0.005997 0.000002 -10.922001
							}
						}
					}
				}
			}
		}
	}
	JOINT LeftHip
	{
		OFFSET 8.100000 0.000000 0.000000
		CHANNELS 3 Yrotation Xrotation Zrotation
		JOINT LeftKnee
		{
			OFFSET 0.000000 0.000007 -43.200001
			CHANNELS 3 Yrotation Xrotation Zrotation
			JOINT LeftAnkle
			{
				OFFSET 0.062000 0.000007 -43.299999
				CHANNELS 3 Yrotation Xrotation Zrotation
				End Site
				{
					OFFSET 0.000000 -13.151999 -6.231003
				}
			}
		}
	}
	JOINT RightHip
	{
		OFFSET -8.100000 0.000000 0.000000
		CHANNELS 3 Yrotation Xrotation Zrotation
		JOINT RightKnee
		{
			OFFSET 0.000000 0.000007 -43.200001
			CHANNELS 3 Yrotation Xrotation Zrotation
			JOINT RightAnkle
			{
				OFFSET -0.063000 0.000007 -43.299999
				CHANNELS 3 Yrotation Xrotation Zrotation
				End Site
				{
					OFFSET 0.000000 -13.151999 -6.231003
				}
			}
		}
	}
}
MOTION
Frames: 8
Frame Time: 0.320420
22.615999 -1107.457886 93.770874 3.893146 3.068144 -268.635110 -1.845637 -0.613525 -6.179310 -3.626201 -1.427626 -12.374148 -1.622643 8.297417 10.475360 89.013013 -7.560098 -3.454032 -0.612904 4.747063 -6.648924 -97.299255 -2.553380 -9.528553 -4.881402 3.812108 -5.395797 -4.881403 3.812109 -5.395797 -0.448233 2.706149 -21.308320 -84.670126 21.338749 2.718210 -1.786879 -6.474443 6.441376 105.264922 9.376746 21.064512 2.550674 -4.745602 -13.749501 -0.000535 10.110000 -0.003047 3.473153 -6.713679 6.548298 181.566222 -173.370555 -189.771943 0.002813 13.043996 0.021092 1.516845 -12.884078 -9.556492 
22.615999 -1107.457886 93.770874 3.893146 3.068144 -268.635110 -1.845637 -0.613525 -6.179310 -3.626201 -1.427626 -12.374148 -1.622643 8.297417 10.475360 88.139657 -7.653627 -3.693844 -0.612905 4.747063 -6.648923 -97.299255 -2.553380 -9.528551 -4.881402 3.812108 -5.395797 -4.881403 3.812109 -5.395797 -0.448233 2.706149 -21.308320 -84.670126 21.338749 2.718210 -1.786879 -6.474443 6.441376 105.264922 9.376746 21.064512 2.550674 -4.745602 -13.749501 -0.000535 10.110000 -0.003047 3.473153 -6.713679 6.548298 181.566222 -173.370555 -189.771943 0.002813 13.043996 0.021092 1.516845 -12.884078 -9.556492 
22.615999 -1107.457886 93.770874 3.893146 3.068144 -268.635110 -1.845637 -0.613525 -6.179310 -3.626201 -1.427626 -12.374148 -1.622643 8.297417 10.475360 89.432906 -7.516426 -3.338271 -0.612901 4.747063 -6.648923 -97.299255 -2.553380 -9.528552 -4.881402 3.812108 -5.395797 -4.881403 3.812109 -5.395797 -0.448233 2.706149 -21.308320 -84.670126 21.338749 2.718210 -1.786879 -6.474443 6.441376 105.264922 9.376746 21.064512 2.550674 -4.745602 -13.749501 -0.000535 10.110000 -0.003047 3.473153 -6.713679 6.548298 181.566222 -173.370555 -189.771943 0.002813 13.043996 0.021092 1.516845 -12.884078 -9.556492 
22.615999 -1107.457886 93.770874 3.893146 3.068144 -268.635110 -1.845637 -0.613525 -6.179310 -3.626201 -1.427626 -12.374148 -1.622643 8.297417 10.475360 88.254097 -7.641167 -3.662501 -0.612904 4.747063 -6.648924 -97.299255 -2.553380 -9.528551 -4.881402 3.812108 -5.395797 -4.881403 3.812109 -5.395797 -0.448233 2.706149 -21.308320 -84.670126 21.338749 2.718210 -1.786879 -6.474443 6.441376 105.264922 9.376746 21.064512 2.550674 -4.745602 -13.749501 -0.000535 10.110000 -0.003047 3.473153 -6.713679 6.548298 181.566222 -173.370555 -189.771943 0.002813 13.043996 0.021092 1.516845 -12.884078 -9.556492 
22.615999 -1107.457886 93.770874 3.893146 3.068144 -268.635110 -1.845637 -0.613525 -6.179310 -3.626201 -1.427626 -12.374148 -1.622643 8.297417 10.475360 89.781102 -7.480859 -3.242045 -0.612903 4.747063 -6.648923 -97.299255 -2.553380 -9.528552 -4.881402 3.812108 -5.395797 -4.881403 3.812109 -5.395797 -0.448233 2.706149 -21.308320 -84.670126 21.338749 2.718210 -1.786879 -6.474443 6.441376 105.264922 9.376746 21.064512 2.550674 -4.745602 -13.749501 -0.000535 10.110000 -0.003047 3.473153 -6.713679 6.548298 181.566222 -173.370555 -189.771943 0.002813 13.043996 0.021092 1.516845 -12.884078 -9.556492 
22.615999 -1107.457886 93.770874 3.893146 3.068144 -268.635110 -1.845637 -0.613525 -6.179310 -3.626201 -1.427626 -12.374148 -1.622643 8.297417 10.475360 89.779210 -7.481052 -3.242570 -0.612904 4.747063 -6.648923 -97.299255 -2.553380 -9.528552 -4.881402 3.812108 -5.395797 -4.881403 3.812109 -5.395797 -0.448233 2.706149 -21.308320 -84.670126 21.338749 2.718210 -1.786879 -6.474443 6.441376 105.264922 9.376746 21.064512 2.550674 -4.745602 -13.749501 -0.000535 10.110000 -0.003047 3.473153 -6.713679 6.548298 181.566222 -173.370555 -189.771943 0.002813 13.043996 0.021092 1.516845 -12.884078 -9.556492 
22.208000 -1102.409912 93.503876 5.481162 1.793762 -271.182088 -0.204954 -1.039890 -5.008512 -0.318562 -2.098773 -10.042215 0.346267 6.252929 10.146485 84.730682 -3.512280 -4.217899 -3.010433 10.032586 -7.841448 -98.470892 -2.313791 -12.907424 -1.616764 -0.583445 -2.086273 -1.616764 -0.583446 -2.086278 -0.496715 3.246563 -20.141741 -85.100318 19.045955 2.038792 -1.677801 -6.075753 6.329672 103.656843 9.122768 22.653647 4.615812 -7.220585 -17.499839 -0.000497 12.283002 -0.006933 3.314096 -10.193856 10.378838 183.856043 -169.980500 -191.741947 0.000000 15.068999 0.000001 -0.003902 -9.816666 -5.104874 
22.225000 -1102.712891 93.488831 5.064057 1.883255 -271.284595 -0.253091 -1.032645 -5.103698 -0.414131 -2.088899 -10.231953 -0.252396 7.117609 11.474141 85.228186 -6.539109 -1.434953 -5.286535 6.347771 -4.920187 -98.048226 -4.438800 -13.450635 -1.114070 1.824443 -3.687191 -1.114071 1.824445 -3.687193 -0.279467 3.728377 -19.941332 -85.259230 19.078031 2.029176 -0.999032 -5.820657 6.516044 103.400410 8.239832 21.760703 4.351828 -6.425391 -17.079199 -0.000407 11.552001 -0.006924 3.627427 -10.261980 10.118966 183.667366 -170.275400 -190.957459 -0.000273 15.286998 -0.001037 0.111999 -9.993560 -5.822448 
